<?xml version="1.0" encoding="UTF-8"?>
<svg version="1.1" xmlns="http://www.w3.org/2000/svg" width="271" height="271">
<path d="M0 0 C89.43 0 178.86 0 271 0 C271 89.43 271 178.86 271 271 C181.57 271 92.14 271 0 271 C0 181.57 0 92.14 0 0 Z " fill="#020202" transform="translate(0,0)"/>
<path d="M0 0 C0.99 0 1.98 0 3 0 C4.49745346 3.40330331 5.90655732 6.71417534 7.0625 10.25 C7.92529767 13.16587399 7.92529767 13.16587399 10 16 C15.94406265 11.22596998 15.94406265 11.22596998 19.59765625 4.84375 C19.6130706 2.75119812 19.6130706 2.75119812 19 0 C19.66 0 20.32 0 21 0 C21 1.32 21 2.64 21 4 C21.83354004 3.34805664 22.66708008 2.69611328 23.52587891 2.02441406 C27.1849029 -0.40351518 30.18848481 -0.46098424 34.5859375 -0.390625 C35.28772125 -0.38496521 35.989505 -0.37930542 36.71255493 -0.37347412 C38.93409087 -0.35124483 41.15395923 -0.30108056 43.375 -0.25 C44.88929947 -0.22991731 46.40362446 -0.21166964 47.91796875 -0.1953125 C51.61251268 -0.15142633 55.30609333 -0.08249577 59 0 C59 0.66 59 1.32 59 2 C59.58861816 2.26337158 60.17723633 2.52674316 60.78369141 2.7980957 C63.09618035 4.05215861 64.61266055 5.36885156 66.4609375 7.23046875 C67.09773437 7.86919922 67.73453125 8.50792969 68.390625 9.16601562 C69.37289062 10.16665039 69.37289062 10.16665039 70.375 11.1875 C71.02210938 11.83525391 71.66921875 12.48300781 72.3359375 13.15039062 C75.95631434 16.80361363 79.41104525 20.54201109 82.71142578 24.48706055 C85.50297284 27.76466894 88.52397039 30.61710662 91.875 33.3125 C94.98665026 35.85407693 97.4828438 38.77565762 100.08203125 41.828125 C102.84261739 44.95416552 105.82641395 47.83672394 108.796875 50.76171875 C110.87911104 52.87718196 112.82366995 55.0553437 114.75 57.3125 C116.60738255 59.48086633 118.2582586 61.20660688 120.5 63 C122.68761772 64.75009418 124.26126349 66.38191948 126.0625 68.5 C129.2257868 72.21131237 132.59811571 75.63745351 136.0625 79.0625 C137.10048101 80.10915628 138.13824733 81.15602552 139.17578125 82.203125 C140.77171507 83.78360718 142.39698014 85.33879567 144.10546875 86.796875 C147.62493679 90.04047025 148.38804486 92.82218628 148.68847656 97.63549805 C148.78821639 100.96213803 148.75847578 103.73929777 148 107 C144.91381531 109.6260012 142.95237761 110.86394606 138.9375 111.4375 C135.61713921 110.94297818 133.65835429 110.03285917 131 108 C131 107.34 131 106.68 131 106 C130.01 105.67 129.02 105.34 128 105 C128 104.34 128 103.68 128 103 C127.360625 102.731875 126.72125 102.46375 126.0625 102.1875 C124 101 124 101 123 98 C122.01 97.67 121.02 97.34 120 97 C120 96.01 120 95.02 120 94 C119.43925781 93.76539062 118.87851563 93.53078125 118.30078125 93.2890625 C111.21830686 89.32095291 105.73858618 81.78035027 100.51171875 75.6640625 C98.93379588 73.83911992 98.93379588 73.83911992 96.5 72 C93.54678067 69.63742454 91.27994885 66.95350539 88.828125 64.0859375 C86.03773941 60.90203599 83.02829346 57.95567251 80 55 C76.73418434 51.81013354 73.84886716 48.56108395 71 45 C68.18828592 42.03207958 65.23373856 39.33412878 62.125 36.6875 C57.99892445 33.12089232 54.52396353 29.14890287 51 25 C47.72754074 21.117642 47.72754074 21.117642 43.1875 19.25 C38.202728 20.42288753 35.57684286 23.44575962 32 27 C30.87376881 28.10033298 29.74746065 29.20058719 28.62109375 30.30078125 C23.84201703 35.0074092 19.08972068 39.68874438 14.72265625 44.78515625 C9.40847254 50.93035238 3.51983981 56.52287362 -2.26171875 62.22265625 C-6.78760422 66.70935656 -11.15634616 71.23512868 -15.30175781 76.07470703 C-18.41432455 79.60341625 -21.7786932 82.88231039 -25.125 86.1875 C-25.81464844 86.87263672 -26.50429687 87.55777344 -27.21484375 88.26367188 C-27.88902344 88.93333984 -28.56320313 89.60300781 -29.2578125 90.29296875 C-29.90395508 90.93540527 -30.55009766 91.5778418 -31.21582031 92.23974609 C-32.70933626 93.71323405 -34.22338292 95.16587347 -35.7421875 96.61328125 C-41.6591995 102.86811573 -42.57890487 107.1782948 -42.4699707 115.51586914 C-42.4732563 117.08521461 -42.4732563 117.08521461 -42.47660828 118.68626404 C-42.47891522 122.13621894 -42.45268533 125.58531545 -42.42578125 129.03515625 C-42.42085628 131.43598663 -42.4175581 133.83682084 -42.41581726 136.23765564 C-42.40818126 141.26541436 -42.38763191 146.29288802 -42.35668945 151.32055664 C-42.31709384 157.76568423 -42.2990762 164.2106265 -42.28938007 170.65586185 C-42.27940602 176.80315175 -42.25952292 182.95039648 -42.23828125 189.09765625 C-42.23318763 190.85783931 -42.23318763 190.85783931 -42.2279911 192.65358162 C-42.21641105 195.97361746 -42.19788923 199.29353661 -42.17700195 202.61352539 C-42.1729686 204.08724106 -42.1729686 204.08724106 -42.16885376 205.59072876 C-42.16169846 206.49765976 -42.15454315 207.40459076 -42.14717102 208.33900452 C-42.14289754 209.12303178 -42.13862406 209.90705904 -42.13422108 210.7148447 C-41.98573211 213.24291516 -41.65495006 215.55228138 -41 218 C-39.11629529 219.3169667 -39.11629529 219.3169667 -37 220 C-36.34 220.33 -35.68 220.66 -35 221 C-35 221.66 -35 222.32 -35 223 C-33.83324517 223.00219984 -33.83324517 223.00219984 -32.64291954 223.00444412 C-13.71378814 223.04150065 5.21515854 223.10050002 24.14414406 223.18390274 C33.2980847 223.22370699 42.45193919 223.25609243 51.60595703 223.27099609 C59.58489001 223.28400544 67.56363355 223.31095171 75.54245985 223.35461307 C79.76697562 223.37724411 83.99125761 223.3929097 88.21583939 223.39188385 C92.19355472 223.3911382 96.17075296 223.40905032 100.1483345 223.44116783 C101.60676719 223.44967468 103.06525782 223.45141139 104.52370453 223.44580269 C106.51848151 223.43915426 108.51329354 223.45945848 110.50796509 223.48101807 C111.6233346 223.48470524 112.73870411 223.48839241 113.8878727 223.49219131 C118.28693806 224.20999087 121.60958977 226.23038698 124.375 229.75 C125.33315962 233.19937462 125.11908512 236.42744626 125 240 C124.34 240 123.68 240 123 240 C122.67 240.99 122.34 241.98 122 243 C100.38140697 243.11689583 78.76286619 243.20501886 57.14402103 243.25906086 C47.10559068 243.28482252 37.0673569 243.31993408 27.02905273 243.37719727 C18.27780045 243.42709463 9.52669056 243.45930583 0.77529997 243.47044247 C-3.85688284 243.47695051 -8.48865834 243.49220363 -13.12071037 243.52865028 C-17.4849545 243.56270995 -21.84862539 243.57303296 -26.21298981 243.56553841 C-27.81051059 243.56690852 -29.40805149 243.57678176 -31.00545692 243.59602737 C-39.61037018 243.69457241 -47.02955937 243.66549772 -54 238 C-56.19140625 235.61328125 -56.19140625 235.61328125 -57.5625 233.3125 C-58.03816406 232.54550781 -58.51382813 231.77851563 -59.00390625 230.98828125 C-60 229 -60 229 -60 227 C-60.66 227 -61.32 227 -62 227 C-62.11688454 209.51914058 -62.20501307 192.03840338 -62.25906086 174.55724239 C-62.28482504 166.44012819 -62.31994109 158.32325702 -62.37719727 150.20629883 C-62.42708732 143.13022034 -62.45930401 136.05431789 -62.47044247 128.97806841 C-62.47695188 125.23234387 -62.49221256 121.48712288 -62.52865028 117.74155998 C-62.56903137 113.55656628 -62.56994586 109.37244383 -62.56762695 105.18725586 C-62.58560333 103.95007309 -62.60357971 102.71289032 -62.62210083 101.43821716 C-62.57903793 94.26119376 -61.92056309 90.34238221 -57 85 C-59.77260299 83.06201737 -59.77260299 83.06201737 -62 82 C-62 81.34 -62 80.68 -62 80 C-60.16308594 80.61681641 -60.16308594 80.61681641 -58.2890625 81.24609375 C-54.47432861 81.66340026 -53.19494418 81.13979002 -50.02636719 78.86767578 C-46.62379347 75.77956874 -43.50434212 72.42297618 -40.375 69.0625 C-39.27314031 67.9189965 -38.16898973 66.7776958 -37.0625 65.63867188 C-32.09253448 60.49281714 -27.28209359 55.23458207 -22.61425781 49.81274414 C-19.62426379 46.45510566 -16.39716228 43.3332884 -13.1875 40.1875 C-11.8661605 38.89169363 -10.54705092 37.59360845 -9.23046875 36.29296875 C-8.65707764 35.7311792 -8.08368652 35.16938965 -7.49291992 34.59057617 C-5.79042085 32.86435723 -5.79042085 32.86435723 -4 30 C-3.34 30 -2.68 30 -2 30 C-1.505 28.515 -1.505 28.515 -1 27 C0.64488294 25.31183067 2.31337542 23.64646685 4 22 C5.01710743 20.6796704 6.02073564 19.34863601 7 18 C6.57847656 17.11957031 6.15695313 16.23914063 5.72265625 15.33203125 C5.17480469 14.17058594 4.62695312 13.00914063 4.0625 11.8125 C3.24458984 10.08966797 3.24458984 10.08966797 2.41015625 8.33203125 C1.20539869 5.48533264 0.45223729 3.03972155 0 0 Z " fill="#707070" transform="translate(117,26)"/>
<path d="M0 0 C7.31672462 0.60972705 14.54833568 1.24891751 21.81640625 2.19140625 C23.11202736 2.35575417 23.11202736 2.35575417 24.43382263 2.52342224 C27.14369705 2.86735951 29.85313186 3.21459883 32.5625 3.5625 C35.30403443 3.91370719 38.04565816 4.26413802 40.7875824 4.61228943 C42.48171605 4.82745662 44.17562616 5.04439322 45.86927795 5.26332092 C48.93446518 5.65307616 51.90657553 6 55 6 C55 47.58 55 89.16 55 132 C55.66 132 56.32 132 57 132 C58.5078125 133.8984375 58.5078125 133.8984375 60.125 136.375 C60.93324219 137.59316406 60.93324219 137.59316406 61.7578125 138.8359375 C63 141 63 141 63 143 C63.928125 143.28875 64.85625 143.5775 65.8125 143.875 C69 145 69 145 72 147 C72 147.66 72 148.32 72 149 C50.53167708 159.73416146 24.0023147 150 0 150 C0 100.5 0 51 0 0 Z " fill="#030303" transform="translate(0,121)"/>
<path d="M0 0 C3 2 3 2 3.68359375 3.796875 C4.04479998 6.31194061 4.09592646 8.70958935 4.0625 11.25 C4.05347656 12.14203125 4.04445312 13.0340625 4.03515625 13.953125 C4.02355469 14.62859375 4.01195312 15.3040625 4 16 C2.68 16 1.36 16 0 16 C-0.66 12.37 -1.32 8.74 -2 5 C-9.69833966 5.6368728 -13.137266 10.4414853 -18 16 C-23.45377959 22.76097234 -27.32166501 30.15827486 -31 38 C-31.66 38 -32.32 38 -33 38 C-33.37125 39.155 -33.7425 40.31 -34.125 41.5 C-36.5320892 48.74452449 -39.29413386 55.86316861 -42 63 C-41.54786133 62.64284912 -41.09572266 62.28569824 -40.62988281 61.91772461 C-13.07163166 40.24336261 -13.07163166 40.24336261 -1.2265625 40.71875 C2.80588143 41.22811134 4.33509533 41.8567791 7 45 C7.81185895 51.070657 8.33509071 57.62082144 5 63 C6.00160156 62.43410156 7.00320312 61.86820313 8.03515625 61.28515625 C9.37728826 60.54369871 10.71975413 59.80284527 12.0625 59.0625 C13.04766602 58.50272461 13.04766602 58.50272461 14.05273438 57.93164062 C18.44077463 55.53226886 22.00873138 54.40890757 27 54 C27.495 55.98 27.495 55.98 28 58 C27.28457031 58.268125 26.56914062 58.53625 25.83203125 58.8125 C12.39513607 64.09686757 2.88703144 69.7681216 -5 82 C-7.27015959 85.0511333 -9.62923576 88.02668997 -12 91 C-12.49113281 91.639375 -12.98226562 92.27875 -13.48828125 92.9375 C-16.97116048 97.29344599 -20.79853022 100.8104696 -26 103 C-29 102.8125 -29 102.8125 -31 102 C-31.875 100 -31.875 100 -32 97 C-30.35061381 94.04747281 -28.18940734 91.56623344 -26 89 C-25.22076172 88.02160156 -25.22076172 88.02160156 -24.42578125 87.0234375 C-19.19545025 80.66598917 -12.83836713 75.38486589 -6.1015625 70.671875 C-1.27419835 67.19225211 0.53611617 62.59087837 2 57 C2.411776 53.94638025 2.72143077 51.01571059 2 48 C-1.15261265 45.89825824 -2.19479247 45.6696117 -5.8125 46.35546875 C-16.03008868 49.36600827 -24.16614589 55.85859832 -32.43359375 62.29296875 C-39.99484386 68.11168402 -39.99484386 68.11168402 -43.8125 67.6875 C-44.534375 67.460625 -45.25625 67.23375 -46 67 C-48.07756656 48.30190093 -33.13015131 26.99028979 -22 13 C-21.02933594 11.76443359 -21.02933594 11.76443359 -20.0390625 10.50390625 C-14.92641335 4.35053998 -8.57272934 -2.63137088 0 0 Z " fill="#ECECEC" transform="translate(136,125)"/>
<path d="M0 0 C3.39366878 5.37330889 3.32712342 9.86946489 3 16 C1.68 15.67 0.36 15.34 -1 15 C-1.33 11.7 -1.66 8.4 -2 5 C-9.31230979 5.59779467 -12.95507713 9.96599151 -17.53564453 15.21484375 C-24.71689428 23.9693116 -30.20105815 33.90749315 -35.125 44.0625 C-35.50350098 44.83529297 -35.88200195 45.60808594 -36.27197266 46.40429688 C-38.56162385 51.33125939 -39.59385601 55.57859316 -40 61 C-39.49251221 60.60731934 -38.98502441 60.21463867 -38.4621582 59.81005859 C-12.34672017 39.73305969 -12.34672017 39.73305969 -0.875 40.59765625 C1.8760011 41.18797524 3.8270444 42.23447357 6 44 C8.41647749 48.83295499 7.36483465 55.65467221 6 60.6875 C5.67 61.450625 5.34 62.21375 5 63 C5.64066406 62.60167969 6.28132813 62.20335937 6.94140625 61.79296875 C20.61228814 53.41929892 20.61228814 53.41929892 27 54 C26.76953125 56.3828125 26.76953125 56.3828125 26 59 C24.13671875 60.1171875 24.13671875 60.1171875 21.6875 60.875 C16.21083964 62.79262027 11.51203469 65.50049518 6.56640625 68.51171875 C4 70 4 70 1 71 C0.28942275 72.64842415 -0.36997468 74.31914 -1 76 C-7.12612421 85.56380543 -15.51615989 97.83500539 -26 103 C-29.5 102.875 -29.5 102.875 -32 102 C-31.62172654 92.92143698 -25.70930213 87.33141491 -19.48828125 81.20703125 C-15.78441175 77.92180948 -11.84303519 74.93850199 -7.8359375 72.03198242 C-3.28686149 68.62080583 -1.00114887 65.27648722 0.6875 59.75 C1.16997985 55.5041773 1.07458677 51.26802076 1 47 C-11.60094131 45.73990587 -21.00640992 53.38519887 -30.67578125 60.53515625 C-31.21662354 60.93468506 -31.75746582 61.33421387 -32.31469727 61.74584961 C-33.5058134 62.63224155 -34.69062333 63.52713766 -35.87084961 64.42797852 C-40.67912174 68.02048159 -40.67912174 68.02048159 -43.9375 67.8125 C-44.618125 67.544375 -45.29875 67.27625 -46 67 C-46.71779743 56.47230433 -43.00977399 47.06598305 -38 38 C-37.54625 37.12730469 -37.0925 36.25460938 -36.625 35.35546875 C-17.54194563 -0.89196334 -17.54194563 -0.89196334 0 0 Z " fill="#E1E1E1" transform="translate(212,125)"/>
<path d="M0 0 C0.66 0.33 1.32 0.66 2 1 C2.054138 3.24973447 2.09285491 5.49984383 2.125 7.75 C2.14820313 9.00296875 2.17140625 10.2559375 2.1953125 11.546875 C2.01537302 14.72820492 1.68998582 16.36521896 0 19 C1.00160156 18.43410156 2.00320312 17.86820313 3.03515625 17.28515625 C4.37728826 16.54369871 5.71975413 15.80284527 7.0625 15.0625 C7.71927734 14.68931641 8.37605469 14.31613281 9.05273438 13.93164062 C13.44077463 11.53226886 17.00873138 10.40890757 22 10 C22.495 11.98 22.495 11.98 23 14 C21.92685547 14.4021875 21.92685547 14.4021875 20.83203125 14.8125 C7.39513607 20.09686757 -2.11296856 25.7681216 -10 38 C-12.27015959 41.0511333 -14.62923576 44.02668997 -17 47 C-17.49113281 47.639375 -17.98226562 48.27875 -18.48828125 48.9375 C-21.97116048 53.29344599 -25.79853022 56.8104696 -31 59 C-34 58.8125 -34 58.8125 -36 58 C-36.875 56 -36.875 56 -37 53 C-35.35061381 50.04747281 -33.18940734 47.56623344 -31 45 C-30.22076172 44.02160156 -30.22076172 44.02160156 -29.42578125 43.0234375 C-24.19545025 36.66598917 -17.83836713 31.38486589 -11.1015625 26.671875 C-6.25826955 23.18077044 -4.45706511 18.61239894 -3 13 C-2.61283973 9.78005319 -2.38077867 6.6119713 -2.2734375 3.37109375 C-2.18320313 2.58863281 -2.09296875 1.80617187 -2 1 C-1.34 0.67 -0.68 0.34 0 0 Z " fill="#EAEAEA" transform="translate(141,169)"/>
<path d="M0 0 C-0.23046875 2.3828125 -0.23046875 2.3828125 -1 5 C-2.86328125 6.1171875 -2.86328125 6.1171875 -5.3125 6.875 C-10.78916036 8.79262027 -15.48796531 11.50049518 -20.43359375 14.51171875 C-23 16 -23 16 -26 17 C-26.71057725 18.64842415 -27.36997468 20.31914 -28 22 C-34.12612421 31.56380543 -42.51615989 43.83500539 -53 49 C-56.5 48.875 -56.5 48.875 -59 48 C-58.61382516 38.73180393 -52.46121611 33.08708778 -46.078125 26.88671875 C-41.08744008 22.35570217 -36.05684997 18.9579965 -30 16 C-28.00602436 14.36209144 -27.13481757 13.34222923 -26.1875 10.9375 C-24.43637371 8.08039921 -22.15475373 8.03572541 -19 7 C-16.0095323 5.51317579 -13.05790685 3.98284182 -10.12304688 2.390625 C-6.58995814 0.54862036 -3.99645214 -0.40795542 0 0 Z " fill="#F2F2F2" transform="translate(239,179)"/>
<path d="M0 0 C3 2 3 2 3.68359375 3.796875 C4.04479998 6.31194061 4.09592646 8.70958935 4.0625 11.25 C4.05347656 12.14203125 4.04445312 13.0340625 4.03515625 13.953125 C4.02355469 14.62859375 4.01195312 15.3040625 4 16 C2.68 16 1.36 16 0 16 C-0.66 12.37 -1.32 8.74 -2 5 C-9.69833966 5.6368728 -13.137266 10.4414853 -18 16 C-23.45377959 22.76097234 -27.32166501 30.15827486 -31 38 C-31.66 38 -32.32 38 -33 38 C-33.66 39.98 -34.32 41.96 -35 44 C-35.66 43.34 -36.32 42.68 -37 42 C-37.33 42.66 -37.66 43.32 -38 44 C-38.66 44 -39.32 44 -40 44 C-36.5908841 32.61906256 -29.28902585 22.25749076 -22 13 C-21.35160156 12.17371094 -20.70320313 11.34742188 -20.03515625 10.49609375 C-14.91954832 4.34723432 -8.57107794 -2.63086399 0 0 Z " fill="#DDDDDD" transform="translate(136,125)"/>
<path d="M0 0 C0 3.92823101 -1.51754449 5.06618894 -4 8 C-4.33 8.66 -4.66 9.32 -5 10 C-4.34 10.33 -3.68 10.66 -3 11 C-4.65 12.98 -6.3 14.96 -8 17 C-7.34 18.32 -6.68 19.64 -6 21 C-9.60153883 25.8395678 -13.38045408 29.57543785 -19 32 C-22 31.8125 -22 31.8125 -24 31 C-24.875 29 -24.875 29 -25 26 C-23.35061381 23.04747281 -21.18940734 20.56623344 -19 18 C-18.48050781 17.34773438 -17.96101563 16.69546875 -17.42578125 16.0234375 C-12.6265822 10.19002848 -6.90509659 5.66890855 -1 1 C-0.67 0.67 -0.34 0.34 0 0 Z " fill="#EBEBEB" transform="translate(129,196)"/>
<path d="M0 0 C0.66 0.33 1.32 0.66 2 1 C1.835 1.598125 1.67 2.19625 1.5 2.8125 C0.8885876 5.11344336 0.8885876 5.11344336 1 8 C-0.6757439 10.06019652 -2.35695851 11.96221338 -4.1875 13.875 C-4.91163086 14.65037109 -4.91163086 14.65037109 -5.65039062 15.44140625 C-14.28247331 24.64123665 -14.28247331 24.64123665 -17 26 C-16.34 26.33 -15.68 26.66 -15 27 C-15 27.66 -15 28.32 -15 29 C-16.98 28.67 -18.96 28.34 -21 28 C-20.57914336 17.89944058 -13.03727511 11.54857545 -6 5 C-4.03438586 3.28008763 -2.04017985 1.63214388 0 0 Z " fill="#D9D9D9" transform="translate(201,199)"/>
<path d="M0 0 C0.66 0 1.32 0 2 0 C1.67 3.96 1.34 7.92 1 12 C5.62 8.7 10.24 5.4 15 2 C15.66 2.33 16.32 2.66 17 3 C14.76845781 8.54627822 11.8775452 11.13245557 7.125 14.4375 C6.51269531 14.89576172 5.90039062 15.35402344 5.26953125 15.82617188 C2.37051168 17.88404123 0.66713204 19.04866348 -2.9453125 18.78515625 C-3.62335938 18.52605469 -4.30140625 18.26695312 -5 18 C-5.43328368 11.06746106 -3.85991763 5.78987645 0 0 Z " fill="#E8E8E8" transform="translate(171,174)"/>
<path d="M0 0 C0.33 0.66 0.66 1.32 1 2 C1.66 2 2.32 2 3 2 C3 1.34 3 0.68 3 0 C3.66 0 4.32 0 5 0 C2.97963499 5.53404329 0.0716538 10.59269154 -2.72265625 15.76171875 C-4.69905853 19.44708934 -6.56216132 23.06157232 -8 27 C-8.33 26.34 -8.66 25.68 -9 25 C-10.65 26.32 -12.3 27.64 -14 29 C-12.25545388 22.89408859 -9.82777608 17.35333499 -7 11.6875 C-6.65582031 10.99398437 -6.31164062 10.30046875 -5.95703125 9.5859375 C-4.21566009 6.14989862 -2.46069243 2.99127924 0 0 Z " fill="#E2E2E2" transform="translate(182,149)"/>
<path d="M0 0 C0.33 0.66 0.66 1.32 1 2 C0.53454269 2.81651031 0.06908539 3.63302063 -0.41047668 4.47427368 C-2.54713378 9.21359904 -2.43998066 13.27159963 -2.43237305 18.41162109 C-2.4425647 19.44637573 -2.45275635 20.48113037 -2.46325684 21.54724121 C-2.49337013 24.95602851 -2.50265048 28.3645347 -2.51171875 31.7734375 C-2.52856662 34.14141777 -2.546717 36.50938911 -2.56611633 38.87734985 C-2.61361043 45.10139168 -2.64342383 51.32539726 -2.66955566 57.54956055 C-2.69936398 63.90420692 -2.74589345 70.25872843 -2.79101562 76.61328125 C-2.87704217 89.07545552 -2.94439053 101.53765548 -3 114 C-3.33 114 -3.66 114 -4 114 C-4.09352385 100.02223967 -4.1637524 86.04452799 -4.20724869 72.06651878 C-4.22812459 65.57597376 -4.25644303 59.08563891 -4.30175781 52.59521484 C-4.34521434 46.33176227 -4.36913708 40.06851189 -4.37950897 33.8049202 C-4.3869006 31.41509442 -4.4013346 29.02527973 -4.42292023 26.63554001 C-4.45195063 23.28852156 -4.45595601 19.94233891 -4.45410156 16.59521484 C-4.46848267 15.60690674 -4.48286377 14.61859863 -4.49768066 13.6003418 C-4.46259477 7.74928746 -3.80576702 4.51259608 0 0 Z " fill="#282828" transform="translate(78,125)"/>
<path d="M0 0 C0 3.92823101 -1.51754449 5.06618894 -4 8 C-4.33 8.66 -4.66 9.32 -5 10 C-4.34 10.33 -3.68 10.66 -3 11 C-4.76999098 12.93827536 -6.54095761 14.87564344 -8.3125 16.8125 C-8.81201172 17.35970703 -9.31152344 17.90691406 -9.82617188 18.47070312 C-12.16943128 21.03121837 -14.51144854 23.57939534 -17 26 C-17.66 25.67 -18.32 25.34 -19 25 C-18.67 24.34 -18.34 23.68 -18 23 C-17.34 23 -16.68 23 -16 23 C-16.0825 22.154375 -16.165 21.30875 -16.25 20.4375 C-15.82172884 14.54877152 -13.58969759 11.42980089 -9.3203125 7.58984375 C-6.58103486 5.34505909 -3.80555114 3.16096997 -1 1 C-0.67 0.67 -0.34 0.34 0 0 Z " fill="#E7E7E7" transform="translate(129,196)"/>
<path d="M0 0 C8.80546188 1.42337285 16.98199891 4.19129254 25.37841797 7.11303711 C27.7560693 7.93960995 30.13744366 8.75467114 32.51953125 9.56835938 C34.04971134 10.09568091 35.5796674 10.62365312 37.109375 11.15234375 C37.81261902 11.39307114 38.51586304 11.63379852 39.24041748 11.88182068 C43.33049309 13.3119289 47.167956 14.97910808 51 17 C51 17.66 51 18.32 51 19 C46.46459155 18.26782147 42.2797719 16.74946601 37.98828125 15.1640625 C37.22001511 14.88404388 36.45174896 14.60402527 35.66020203 14.31552124 C33.20970386 13.42209638 30.76094816 12.52402637 28.3125 11.625 C14.28814487 6.41505394 14.28814487 6.41505394 0 2 C0 1.34 0 0.68 0 0 Z " fill="#8E8E8E" transform="translate(0,87)"/>
<path d="M0 0 C0.66 1.32 1.32 2.64 2 4 C1.34 4 0.68 4 0 4 C0 4.99 0 5.98 0 7 C-0.66 7 -1.32 7 -2 7 C-1.938125 7.845625 -1.87625 8.69125 -1.8125 9.5625 C-2.04015628 13.73619843 -3.20207814 16.25432947 -5 20 C-5.66 20 -6.32 20 -7 20 C-7.66 21.98 -8.32 23.96 -9 26 C-9.66 25.34 -10.32 24.68 -11 24 C-11.33 24.66 -11.66 25.32 -12 26 C-12.66 26 -13.32 26 -14 26 C-12.60855119 21.29489475 -10.59819398 17.21086559 -8.125 13 C-7.78597656 12.40960938 -7.44695312 11.81921875 -7.09765625 11.2109375 C-4.87295546 7.37057948 -2.49520867 3.6700827 0 0 Z " fill="#D8D8D8" transform="translate(110,143)"/>
<path d="M0 0 C10.96941073 0.74457489 21.84830914 2.17418648 32.75 3.5625 C34.62236668 3.79905897 36.49476232 4.03538888 38.3671875 4.27148438 C42.91179631 4.84501719 47.45600258 5.42164409 52 6 C52 6.66 52 7.32 52 8 C12.82187951 5.38530876 12.82187951 5.38530876 0 2 C0 1.34 0 0.68 0 0 Z " fill="#878787" transform="translate(0,121)"/>
<path d="M0 0 C-4.06913744 2.7045058 -8.2665192 4.23160357 -12.8984375 5.6640625 C-13.65162262 5.90160248 -14.40480774 6.13914246 -15.18081665 6.38388062 C-16.76831729 6.88278004 -18.35683316 7.37845914 -19.94628906 7.87109375 C-22.36293445 8.62125468 -24.77531999 9.38405583 -27.1875 10.1484375 C-28.73674046 10.63357546 -30.28621242 11.11797486 -31.8359375 11.6015625 C-32.54970551 11.82760162 -33.26347351 12.05364075 -33.99887085 12.28652954 C-38.33124469 13.61950386 -42.49623812 14.47261191 -47 15 C-47 14.34 -47 13.68 -47 13 C-46.31188232 12.78907715 -45.62376465 12.5781543 -44.91479492 12.36083984 C-42.84867492 11.72719991 -40.7826877 11.09312697 -38.71679688 10.45874023 C-36.35505489 9.73352076 -33.9930737 9.00907986 -31.63085938 8.28540039 C-26.11324526 6.59099426 -20.60203919 4.88356763 -15.11328125 3.09765625 C-13.80677612 2.67444092 -13.80677612 2.67444092 -12.47387695 2.24267578 C-10.85187062 1.71475938 -9.23182067 1.18078521 -7.61401367 0.64013672 C-2.22106192 -1.11053096 -2.22106192 -1.11053096 0 0 Z " fill="#929292" transform="translate(47,177)"/>
<path d="M0 0 C3.39366878 5.37330889 3.32712342 9.86946489 3 16 C1.68 15.67 0.36 15.34 -1 15 C-1.33 11.7 -1.66 8.4 -2 5 C-5.73487777 5.4979837 -7.81237635 5.87491756 -11 8 C-11.66 7.67 -12.32 7.34 -13 7 C-10.60512626 -0.18462123 -6.83858231 -0.45590549 0 0 Z " fill="#EFEFEF" transform="translate(212,125)"/>
<path d="M0 0 C-0.21484375 2.37109375 -0.21484375 2.37109375 -1 5 C-3.00390625 6.22265625 -3.00390625 6.22265625 -5.5625 7.0625 C-10.27313942 8.72308512 -14.56730446 10.70156527 -19 13 C-19 11.02 -19 9.04 -19 7 C-16.77675074 5.8206851 -14.54753361 4.65659082 -12.3125 3.5 C-11.68666016 3.16613281 -11.06082031 2.83226562 -10.41601562 2.48828125 C-6.79518683 0.6304738 -4.08595745 -0.43750214 0 0 Z " fill="#E5E5E5" transform="translate(239,179)"/>
<path d="M0 0 C4.09333759 1.53384659 5.81880382 4.12585261 8.3125 7.625 C10.95406909 11.27006109 13.62015625 14.82994321 16.625 18.1875 C22.15190084 24.36839607 27.0997847 30.66759523 31 38 C26.90057491 36.45690575 25.11725843 33.84740354 22.5625 30.375 C21.68835256 29.20411748 20.81193463 28.03492759 19.93359375 26.8671875 C19.46550293 26.24424805 18.99741211 25.62130859 18.51513672 24.97949219 C15.79451383 21.42505932 12.95771975 17.96528438 10.125 14.5 C9.57787354 13.8301709 9.03074707 13.1603418 8.46704102 12.47021484 C7.94424561 11.83035645 7.4214502 11.19049805 6.8828125 10.53125 C6.14272949 9.62246094 6.14272949 9.62246094 5.38769531 8.6953125 C4.14181787 7.17325533 2.88046376 5.66389774 1.6171875 4.15625 C0 2 0 2 0 0 Z " fill="#787878" transform="translate(66,26)"/>
<path d="M0 0 C0.33 0 0.66 0 1 0 C1.41247574 5.44811706 -0.01089003 9.42014497 -2 14.375 C-2.42925781 15.47908203 -2.42925781 15.47908203 -2.8671875 16.60546875 C-3.56914861 18.40716893 -4.28334405 20.20409432 -5 22 C-4.34 22 -3.68 22 -3 22 C-3 22.99 -3 23.98 -3 25 C-4.65 25 -6.3 25 -8 25 C-8.17156976 19.93869207 -8.04654436 16.66157326 -6 12 C-5.25166149 9.01675866 -4.61701764 6.01288399 -4 3 C-3.01 3 -2.02 3 -1 3 C-0.67 2.01 -0.34 1.02 0 0 Z " fill="#F1F1F1" transform="translate(99,166)"/>
<path d="M0 0 C1.1171875 3.7109375 1.1171875 3.7109375 0.0625 6.3125 C-1.25814394 9.65295232 -1.13959269 12.44038629 -1 16 C0.32 16.33 1.64 16.66 3 17 C3.020625 16.29875 3.04125 15.5975 3.0625 14.875 C4.42944956 10.68302136 7.39069588 8.42565243 11 6 C11.66 6 12.32 6 13 6 C13 6.66 13 7.32 13 8 C13.66 8.66 14.32 9.32 15 10 C12.94963235 11.54002724 10.8873778 13.0561432 8.8125 14.5625 C8.23435547 15.00013672 7.65621094 15.43777344 7.06054688 15.88867188 C4.21742624 17.92865109 2.63149888 19.04805799 -0.92578125 18.77734375 C-1.95251953 18.39255859 -1.95251953 18.39255859 -3 18 C-3.37634203 11.19796625 -2.77471079 6.24309927 0 0 Z " fill="#CFCFCF" transform="translate(93,174)"/>
<path d="M0 0 C4.56437808 1.40228273 8.76201366 3.24758451 13.0078125 5.40625 C13.65571747 5.73161743 14.30362244 6.05698486 14.97116089 6.39221191 C17.02436585 7.42436878 19.07470964 8.46206765 21.125 9.5 C22.50892749 10.19698619 23.89304045 10.89360427 25.27734375 11.58984375 C27.81511986 12.8668673 30.35182792 14.14595865 32.88720703 15.42773438 C35.25548978 16.62394935 37.62555698 17.81608347 40 19 C40 19.66 40 20.32 40 21 C37.16183466 20.36762783 34.67869228 19.4895028 32.05078125 18.25 C31.2925708 17.89284912 30.53436035 17.53569824 29.75317383 17.16772461 C28.94775146 16.78237549 28.1423291 16.39702637 27.3125 16 C26.48194092 15.60498291 25.65138184 15.20996582 24.7956543 14.80297852 C16.40210406 10.77518771 8.18505221 6.43313327 0 2 C0 1.34 0 0.68 0 0 Z " fill="#898989" transform="translate(11,68)"/>
<path d="M0 0 C0.66 0.33 1.32 0.66 2 1 C-0.12105399 5.01883914 -2.32280003 7.34899537 -6 10 C-7.5159375 11.1446875 -7.5159375 11.1446875 -9.0625 12.3125 C-12 14 -12 14 -14.375 13.75 C-14.91125 13.5025 -15.4475 13.255 -16 13 C-13.74799848 8.39913669 -10.74596848 6.15604749 -6.4375 3.625 C-5.55288086 3.07392578 -5.55288086 3.07392578 -4.65039062 2.51171875 C-3.14164793 1.60201041 -1.57368418 0.79208072 0 0 Z " fill="#E5E5E5" transform="translate(121,169)"/>
<path d="M0 0 C1.32 0.33 2.64 0.66 4 1 C4.66 3.64 5.32 6.28 6 9 C6.66 9 7.32 9 8 9 C8.67057887 10.7902061 9.3363469 12.58221489 10 14.375 C10.556875 15.87160156 10.556875 15.87160156 11.125 17.3984375 C12 20 12 20 12 22 C12.66 22 13.32 22 14 22 C14 23.65 14 25.3 14 27 C11.009475 24.24690649 9.14910851 21.7578821 7.421875 18.0859375 C6.98359375 17.16039063 6.5453125 16.23484375 6.09375 15.28125 C5.6503125 14.3221875 5.206875 13.363125 4.75 12.375 C4.29109375 11.40820312 3.8321875 10.44140625 3.359375 9.4453125 C0 2.28664435 0 2.28664435 0 0 Z " fill="#7B7B7B" transform="translate(100,26)"/>
<path d="M0 0 C0.99 0.33 1.98 0.66 3 1 C0.94908973 5.72263663 -2.49309226 9.27033856 -5.80859375 13.1484375 C-7.98602296 15.98181241 -9.51360677 18.75956717 -11 22 C-11.33 22 -11.66 22 -12 22 C-12 20.35 -12 18.7 -12 17 C-11.34 17 -10.68 17 -10 17 C-9.87625 15.741875 -9.7525 14.48375 -9.625 13.1875 C-9.30131941 9.89674737 -8.93395001 8.90092502 -7 6 C-5.33333333 5 -3.66666667 4 -2 3 C-1.34 2.01 -0.68 1.02 0 0 Z " fill="#E4E4E4" transform="translate(120,133)"/>
<path d="M0 0 C0.33 0.66 0.66 1.32 1 2 C0.57847656 2.43570313 0.15695313 2.87140625 -0.27734375 3.3203125 C-3.76365195 7.11013459 -5.73880963 9.64559734 -6 15 C-5.34 15 -4.68 15 -4 15 C-3.67 16.32 -3.34 17.64 -3 19 C-5.875 19.625 -5.875 19.625 -9 20 C-9.66 19.34 -10.32 18.68 -11 18 C-10.88365454 12.58605777 -8.41167271 9.49581141 -4.9375 5.625 C-4.46505859 5.07972656 -3.99261719 4.53445312 -3.50585938 3.97265625 C-2.34782921 2.63916697 -1.17533989 1.31825781 0 0 Z " fill="#DCDCDC" transform="translate(115,208)"/>
<path d="M0 0 C0.33 0.99 0.66 1.98 1 3 C1.268125 3.70125 1.53625 4.4025 1.8125 5.125 C2.10476038 9.60632577 -0.00366476 13.06730526 -2 17 C-2.33 16.34 -2.66 15.68 -3 15 C-4.65 16.32 -6.3 17.64 -8 19 C-6.00386732 12.2813095 -3.2708579 6.19265192 0 0 Z " fill="#D8D8D8" transform="translate(176,159)"/>
<path d="M0 0 C0.66 0.99 1.32 1.98 2 3 C1.32904297 3.56267578 1.32904297 3.56267578 0.64453125 4.13671875 C0.03996094 4.64847656 -0.56460938 5.16023438 -1.1875 5.6875 C-1.77917969 6.18636719 -2.37085938 6.68523437 -2.98046875 7.19921875 C-5.42079565 9.37521624 -7.70105584 11.67463119 -10 14 C-11.18291809 15.18426903 -12.36655935 16.36781598 -13.55078125 17.55078125 C-14.16630859 18.16630859 -14.78183594 18.78183594 -15.41601562 19.41601562 C-18.27734375 22.27734375 -21.13867188 25.13867188 -24 28 C-24.66 27.67 -25.32 27.34 -26 27 C-25.5968457 26.60208252 -25.19369141 26.20416504 -24.77832031 25.79418945 C-22.93285523 23.96965943 -21.09140987 22.1411223 -19.25 20.3125 C-18.61578125 19.68666016 -17.9815625 19.06082031 -17.328125 18.41601562 C-14.60564667 15.70771687 -12.05141821 13.06530803 -9.671875 10.04296875 C-9.12015625 9.36878906 -8.5684375 8.69460937 -8 8 C-7.34 8 -6.68 8 -6 8 C-5.7525 7.4225 -5.505 6.845 -5.25 6.25 C-3.83316683 3.6997003 -2.12372463 1.98214299 0 0 Z " fill="#1A1A1A" transform="translate(140,61)"/>
<path d="M0 0 C0.99 0 1.98 0 3 0 C1.53173176 5.22792478 -0.05808333 10.40403227 -1.9375 15.5 C-2.23527344 16.3146875 -2.53304687 17.129375 -2.83984375 17.96875 C-4.22654577 20.39664579 -5.42892697 21.01236443 -8 22 C-5.92957946 14.39162534 -3.14169523 7.2271408 0 0 Z " fill="#686868" transform="translate(208,0)"/>
<path d="M0 0 C0.99 0 1.98 0 3 0 C3.33 1.98 3.66 3.96 4 6 C4.66 6 5.32 6 6 6 C6.433125 7.03125 6.86625 8.0625 7.3125 9.125 C8.35264133 11.57180865 9.45861159 13.88325196 10.6875 16.25 C12 19 12 19 12 22 C11.01 22 10.02 22 9 22 C8.68546875 21.2265625 8.3709375 20.453125 8.046875 19.65625 C6.06001273 14.82075386 4.0813345 10.02538817 1.6875 5.375 C0 2 0 2 0 0 Z " fill="#717171" transform="translate(88,0)"/>
<path d="M0 0 C0.66 0 1.32 0 2 0 C2.29294756 17.41410488 2.29294756 17.41410488 0 22 C-0.66 22 -1.32 22 -2 22 C-2.26442904 14.40501039 -1.60881575 7.42640842 0 0 Z " fill="#606060" transform="translate(176,0)"/>
<path d="M0 0 C0.99 0 1.98 0 3 0 C3.8393758 3.10256512 4.6704505 6.20729444 5.5 9.3125 C5.73847656 10.19357422 5.97695312 11.07464844 6.22265625 11.98242188 C6.44824219 12.82998047 6.67382812 13.67753906 6.90625 14.55078125 C7.11572266 15.33106689 7.32519531 16.11135254 7.54101562 16.9152832 C8 19 8 19 8 22 C7.34 22 6.68 22 6 22 C4.99009308 19.08666921 3.99384048 16.16884681 3 13.25 C2.71382813 12.425 2.42765625 11.6 2.1328125 10.75 C1.86210938 9.95078125 1.59140625 9.1515625 1.3125 8.328125 C1.06113281 7.5949707 0.80976562 6.86181641 0.55078125 6.10644531 C0 4 0 4 0 0 Z " fill="#6F6F6F" transform="translate(109,0)"/>
<path d="M0 0 C-2.32479849 2.32479849 -3.37375387 2.46662304 -6.54296875 3.0703125 C-7.45240234 3.24433594 -8.36183594 3.41835937 -9.29882812 3.59765625 C-10.7287207 3.85869141 -10.7287207 3.85869141 -12.1875 4.125 C-13.12142578 4.30675781 -14.05535156 4.48851562 -15.01757812 4.67578125 C-20.09921313 5.62702327 -24.83166386 6.21445378 -30 6 C-29.67 5.34 -29.34 4.68 -29 4 C-26.87036133 3.40576172 -26.87036133 3.40576172 -24.08203125 2.9296875 C-23.07462891 2.75566406 -22.06722656 2.58164063 -21.02929688 2.40234375 C-19.96775391 2.22832031 -18.90621094 2.05429688 -17.8125 1.875 C-16.77029297 1.69324219 -15.72808594 1.51148438 -14.65429688 1.32421875 C-9.72984663 0.49147637 -5.01443003 -0.25981503 0 0 Z " fill="#888888" transform="translate(51,160)"/>
<path d="M0 0 C4.90687153 3.9939652 9.44270563 8.3040953 13.9375 12.75 C14.52942139 13.32903076 15.12134277 13.90806152 15.73120117 14.50463867 C17.19409125 15.96410929 18.60214515 17.47812494 20 19 C20 19.66 20 20.32 20 21 C16.23845262 19.74615087 14.72808802 17.85799698 12 15 C11.071875 14.113125 10.14375 13.22625 9.1875 12.3125 C7 10 7 10 7 8 C6.34 8 5.68 8 5 8 C0 2.52380952 0 2.52380952 0 0 Z " fill="#747474" transform="translate(32,24)"/>
<path d="M0 0 C0 4.26812584 -2.51391927 6.07790058 -5.3125 9 C-6.06176758 9.80050781 -6.06176758 9.80050781 -6.82617188 10.6171875 C-8.20718549 12.08782981 -9.60308218 13.54445611 -11 15 C-11.85658203 15.928125 -11.85658203 15.928125 -12.73046875 16.875 C-14 18 -14 18 -16 18 C-14.6415798 14.95667235 -13.11536976 12.87690849 -10.7421875 10.546875 C-10.11699219 9.928125 -9.49179688 9.309375 -8.84765625 8.671875 C-8.19667969 8.03765625 -7.54570312 7.4034375 -6.875 6.75 C-6.21628906 6.1003125 -5.55757812 5.450625 -4.87890625 4.78125 C-3.25703357 3.18288273 -1.6306719 1.58938103 0 0 Z " fill="#454545" transform="translate(202,204)"/>
<path d="M0 0 C-3.97992238 2.59960248 -8.08320499 4.29297514 -12.5625 5.8125 C-13.5515332 6.17504883 -13.5515332 6.17504883 -14.56054688 6.54492188 C-19.48231243 8.22178471 -19.48231243 8.22178471 -22.21850586 7.04956055 C-22.80639893 6.70320557 -23.39429199 6.35685059 -24 6 C-20.37885457 4.80051225 -16.7525494 3.61746495 -13.125 2.4375 C-12.09246094 2.09525391 -11.05992188 1.75300781 -9.99609375 1.40039062 C-9.00996094 1.08134766 -8.02382813 0.76230469 -7.0078125 0.43359375 C-6.09660645 0.13509521 -5.18540039 -0.16340332 -4.24658203 -0.47094727 C-2 -1 -2 -1 0 0 Z " fill="#838383" transform="translate(47,177)"/>
<path d="M0 0 C0.66 0.33 1.32 0.66 2 1 C0.35 2.65 -1.3 4.3 -3 6 C-2.34 6 -1.68 6 -1 6 C-2.36983503 9.16115776 -2.9890638 9.9927092 -6 12 C-6.66 11.34 -7.32 10.68 -8 10 C-8.66 9.67 -9.32 9.34 -10 9 C-8.89902432 7.87187697 -7.79408444 6.74762189 -6.6875 5.625 C-6.07261719 4.99851563 -5.45773438 4.37203125 -4.82421875 3.7265625 C-3 2 -3 2 0 0 Z " fill="#D3D3D3" transform="translate(202,126)"/>
<path d="M0 0 C0.66 0.33 1.32 0.66 2 1 C0.23000902 2.93827536 -1.54095761 4.87564344 -3.3125 6.8125 C-3.81201172 7.35970703 -4.31152344 7.90691406 -4.82617188 8.47070312 C-7.16943128 11.03121837 -9.51144854 13.57939534 -12 16 C-12.66 15.67 -13.32 15.34 -14 15 C-13.67 14.34 -13.34 13.68 -13 13 C-12.34 13 -11.68 13 -11 13 C-10.76539062 12.43796875 -10.53078125 11.8759375 -10.2890625 11.296875 C-8.69337 8.45364109 -6.71075457 6.51901873 -4.375 4.25 C-3.55773437 3.45078125 -2.74046875 2.6515625 -1.8984375 1.828125 C-0.95871094 0.92320312 -0.95871094 0.92320312 0 0 Z " fill="#3D3D3D" transform="translate(124,206)"/>
<path d="M0 0 C0.66 0.33 1.32 0.66 2 1 C-0.44239631 7.59447005 -0.44239631 7.59447005 -3.0625 9.5 C-5 10 -5 10 -7 9 C-6.82374165 6.62051228 -6.30280227 5.29774151 -4.59765625 3.62109375 C-3.09350908 2.37884514 -1.54870149 1.18623944 0 0 Z " fill="#E2E2E2" transform="translate(201,199)"/>
<path d="M0 0 C-0.4794463 4.21912747 -1.16625119 6.79663178 -4 10 C-4.33 9.34 -4.66 8.68 -5 8 C-5.33 8.66 -5.66 9.32 -6 10 C-6.66 10 -7.32 10 -8 10 C-6.83833955 5.74057835 -5.25202969 0 0 0 Z " fill="#DEDEDE" transform="translate(104,159)"/>
<path d="M0 0 C6.40140935 0.46555704 11.26769829 2.14711836 17 5 C17 5.66 17 6.32 17 7 C12.94180817 6.34496718 9.46028718 5.05440879 5.6875 3.4375 C4.61886719 2.98246094 3.55023438 2.52742188 2.44921875 2.05859375 C1.64097656 1.70925781 0.83273438 1.35992187 0 1 C0 0.67 0 0.34 0 0 Z " fill="#8F8F8F" transform="translate(34,99)"/>
<path d="M0 0 C0.33 0.66 0.66 1.32 1 2 C-1.78361029 5.60838371 -4.74131411 8.8170975 -8 12 C-9.27215781 13.26950748 -10.5429471 14.54038752 -11.8125 15.8125 C-12.875 16.875 -13.9375 17.9375 -15 19 C-15.66 18.67 -16.32 18.34 -17 18 C-15.71520959 16.49410612 -14.42195918 14.99542625 -13.125 13.5 C-12.40570313 12.6646875 -11.68640625 11.829375 -10.9453125 10.96875 C-10.30335937 10.3190625 -9.66140625 9.669375 -9 9 C-8.34 9 -7.68 9 -7 9 C-6.67 8.01 -6.34 7.02 -6 6 C-4.37446717 4.29319053 -2.70884005 2.62339805 -1 1 C-0.67 0.67 -0.34 0.34 0 0 Z " fill="#585858" transform="translate(122,47)"/>
<path d="M0 0 C3.54767533 1.65444474 6.73927961 3.71477274 10 5.875 C11.03125 6.55304688 12.0625 7.23109375 13.125 7.9296875 C15.70301931 9.78614162 17.83862389 11.68275542 20 14 C15.1568172 13.04092058 11.74302393 10.33856876 7.75 7.5625 C7.00492188 7.05912109 6.25984375 6.55574219 5.4921875 6.03710938 C4.78835937 5.55177734 4.08453125 5.06644531 3.359375 4.56640625 C2.39209473 3.90040405 2.39209473 3.90040405 1.40527344 3.22094727 C0.9415332 2.81803467 0.47779297 2.41512207 0 2 C0 1.34 0 0.68 0 0 Z " fill="#868686" transform="translate(56,71)"/>
<path d="M0 0 C4.08366335 1.66518311 7.06037785 4.54692877 10.25 7.5 C10.80429688 7.99886719 11.35859375 8.49773438 11.9296875 9.01171875 C13.3285008 10.2968354 14.66944254 11.64433768 16 13 C16 13.66 16 14.32 16 15 C9.23540926 11.99351523 4.52931675 6.70406749 0 1 C0 0.67 0 0.34 0 0 Z " fill="#878787" transform="translate(55,48)"/>
<path d="M0 0 C6.54849313 1.16204993 12.74538144 2.73383385 19 5 C18.67 5.66 18.34 6.32 18 7 C15.37426939 6.35702496 12.74942697 5.71075589 10.125 5.0625 C9.37863281 4.88009766 8.63226563 4.69769531 7.86328125 4.50976562 C2.2265625 3.11328125 2.2265625 3.11328125 0 2 C0 1.34 0 0.68 0 0 Z " fill="#888888" transform="translate(0,87)"/>
<path d="M0 0 C5.71262133 4.19803585 8.93123191 8.63619521 12 15 C7.96369732 13.47275034 6.21014954 10.96243269 3.75 7.5 C3.04359375 6.5203125 2.3371875 5.540625 1.609375 4.53125 C0 2 0 2 0 0 Z " fill="#7B7B7B" transform="translate(85,49)"/>
<path d="M0 0 C0.66 0 1.32 0 2 0 C3.45184478 4.53701494 4.23509196 8.18061476 4 13 C3.34 13 2.68 13 2 13 C0.24252386 8.49646738 -0.19294408 4.82360189 0 0 Z " fill="#757575" transform="translate(133,9)"/>
<path d="M0 0 C5.68502535 1.64566523 10.76681636 4.29032784 16 7 C15.67 7.66 15.34 8.32 15 9 C9.52067211 7.45454854 4.88570819 4.84456788 0 2 C0 1.34 0 0.68 0 0 Z " fill="#828282" transform="translate(11,68)"/>
<path d="M0 0 C0 3.96371154 -1.49924573 4.99909488 -4 8 C-5.0268343 9.6502694 -6.03567924 11.31243867 -7 13 C-7.66 12.67 -8.32 12.34 -9 12 C-8.52379711 7.62346871 -7.33100111 5.93461995 -3.9375 3.1875 C-3.20402344 2.58292969 -2.47054687 1.97835937 -1.71484375 1.35546875 C-1.14894531 0.90816406 -0.58304688 0.46085938 0 0 Z " fill="#E1E1E1" transform="translate(129,196)"/>
<path d="M0 0 C1.65 0.33 3.3 0.66 5 1 C4.44295272 4.23087421 3.66812465 6.02361137 1 8 C-0.32 8 -1.64 8 -3 8 C-2.5359375 7.13375 -2.5359375 7.13375 -2.0625 6.25 C-1.07416636 4.15705816 -0.4831387 2.25464725 0 0 Z " fill="#E9E9E9" transform="translate(202,203)"/>
<path d="M0 0 C0.99 0.33 1.98 0.66 3 1 C0.98396789 5.87207759 -2.34428616 7.83841857 -7 10 C-6.65652573 6.79424013 -6.0292146 6.02483241 -3.5 3.875 C-2.675 3.25625 -1.85 2.6375 -1 2 C-0.67 1.34 -0.34 0.68 0 0 Z " fill="#F1F1F1" transform="translate(120,133)"/>
<path d="M0 0 C0 0.66 0 1.32 0 2 C-5.22512279 3.46670113 -9.5814234 4.22577402 -15 4 C-14.67 3.34 -14.34 2.68 -14 2 C-11.34765625 1.3671875 -11.34765625 1.3671875 -8.0625 0.875 C-6.98097656 0.70742187 -5.89945313 0.53984375 -4.78515625 0.3671875 C-2 0 -2 0 0 0 Z " fill="#848484" transform="translate(15,165)"/>
<path d="M0 0 C4.00735217 0.60110283 6.55469371 2.66602028 9.75 5.0625 C10.73484375 5.79597656 11.7196875 6.52945313 12.734375 7.28515625 C13.48203125 7.85105469 14.2296875 8.41695312 15 9 C14.01 9.495 14.01 9.495 13 10 C3.40546697 3.84965831 3.40546697 3.84965831 0 0 Z " fill="#868686" transform="translate(26,51)"/>
<path d="M0 0 C0.66 0 1.32 0 2 0 C1.54177532 3.46941546 1.10868317 6.67395049 0 10 C-2.0625 11.1875 -2.0625 11.1875 -4 12 C-3.52309796 10.37433394 -3.04340334 8.74948689 -2.5625 7.125 C-2.29566406 6.22007813 -2.02882812 5.31515625 -1.75390625 4.3828125 C-1 2 -1 2 0 0 Z " fill="#747474" transform="translate(204,10)"/>
<path d="M0 0 C0.33 0.66 0.66 1.32 1 2 C-0.04846541 3.46845587 -1.11443761 4.92442099 -2.1875 6.375 C-2.77917969 7.18710938 -3.37085937 7.99921875 -3.98046875 8.8359375 C-6.19553039 11.20952387 -7.93353141 12.03610141 -11 13 C-10.34 12.01 -9.68 11.02 -9 10 C-8.34 10 -7.68 10 -7 10 C-6.773125 9.46375 -6.54625 8.9275 -6.3125 8.375 C-4.56617944 5.21499137 -2.3597151 2.7323017 0 0 Z " fill="#393939" transform="translate(129,209)"/>
<path d="M0 0 C-1.55666955 0.9884096 -3.12062426 1.96535082 -4.6875 2.9375 C-5.55761719 3.48277344 -6.42773438 4.02804688 -7.32421875 4.58984375 C-9.94624689 5.97167172 -12.08310075 6.58480173 -15 7 C-15 6.34 -15 5.68 -15 5 C-13.06891037 3.96709159 -11.129882 2.94901328 -9.1875 1.9375 C-8.10855469 1.36902344 -7.02960937 0.80054688 -5.91796875 0.21484375 C-3 -1 -3 -1 0 0 Z " fill="#878787" transform="translate(15,209)"/>
<path d="M0 0 C0.66 0.33 1.32 0.66 2 1 C0.37660195 2.70884005 -1.29319053 4.37446717 -3 6 C-3.66 6 -4.32 6 -5 6 C-5.2475 6.61875 -5.495 7.2375 -5.75 7.875 C-7.22047178 10.37480203 -8.41403076 10.83316022 -11 12 C-7.72469104 7.36279281 -4.69564393 3.31457218 0 0 Z " fill="#CBCBCB" transform="translate(125,127)"/>
<path d="M0 0 C2.89932357 2.39509338 3.50168276 4.31245243 4 8 C4.66 8 5.32 8 6 8 C6 9.65 6 11.3 6 13 C2.9219997 10.22979973 1.19517992 7.98393307 0 4 C0 2.68 0 1.36 0 0 Z " fill="#7C7C7C" transform="translate(108,40)"/>
<path d="M0 0 C0 0.66 0 1.32 0 2 C0.66 2.66 1.32 3.32 2 4 C0.02 5.32 -1.96 6.64 -4 8 C-4.33 7.01 -4.66 6.02 -5 5 C-5.66 4.67 -6.32 4.34 -7 4 C-2.25 0 -2.25 0 0 0 Z " fill="#D9D9D9" transform="translate(106,180)"/>
<path d="M0 0 C-5.39365686 2.7933465 -9.92652016 3.11908784 -16 3 C-15.67 2.34 -15.34 1.68 -15 1 C-10.19396481 -0.55033393 -4.99180941 -0.0872355 0 0 Z " fill="#8F8F8F" transform="translate(37,163)"/>
<path d="M0 0 C1.32 0.33 2.64 0.66 4 1 C3.25 6.75 3.25 6.75 1 9 C1 7.68 1 6.36 1 5 C-0.98 5.99 -0.98 5.99 -3 7 C-1.125 2.25 -1.125 2.25 0 0 Z " fill="#D0D0D0" transform="translate(103,154)"/>
<path d="M0 0 C0.66 0.33 1.32 0.66 2 1 C2 2.65 2 4.3 2 6 C1.01 6.33 0.02 6.66 -1 7 C-1.33 8.32 -1.66 9.64 -2 11 C-2 7.7 -2 4.4 -2 1 C-1.34 0.67 -0.68 0.34 0 0 Z " fill="#DADADA" transform="translate(141,169)"/>
<path d="M0 0 C0.99 0.33 1.98 0.66 3 1 C-0.16952847 4.26008643 -3.39937989 7.22237877 -7 10 C-7.66 9.67 -8.32 9.34 -9 9 C-6.03 6.03 -3.06 3.06 0 0 Z " fill="#282828" transform="translate(128,130)"/>
<path d="M0 0 C2.31 0.66 4.62 1.32 7 2 C7 2.99 7 3.98 7 5 C7.66 5.33 8.32 5.66 9 6 C7.3125 6.8125 7.3125 6.8125 5 7 C2.25 4.6875 2.25 4.6875 0 2 C0 1.34 0 0.68 0 0 Z " fill="#484848" transform="translate(46,64)"/>
<path d="M0 0 C4.59306496 1.4859916 7.43569245 3.85014682 11 7 C10.01 7.33 9.02 7.66 8 8 C5.95703125 6.85546875 5.95703125 6.85546875 3.8125 5.1875 C3.09707031 4.64480469 2.38164062 4.10210937 1.64453125 3.54296875 C1.10183594 3.03378906 0.55914062 2.52460937 0 2 C0 1.34 0 0.68 0 0 Z " fill="#787878" transform="translate(11,39)"/>
<path d="M0 0 C3.93548431 3.06093224 6.68116787 5.49115974 9 10 C6 10 6 10 4.39453125 8.57421875 C3.61142578 7.64029297 3.61142578 7.64029297 2.8125 6.6875 C2.01779297 5.76517578 2.01779297 5.76517578 1.20703125 4.82421875 C0 3 0 3 0 0 Z " fill="#717171" transform="translate(77,39)"/>
<path d="M0 0 C0.66 0 1.32 0 2 0 C2 1.32 2 2.64 2 4 C2.99 3.67 3.98 3.34 5 3 C4.67 4.65 4.34 6.3 4 8 C2.35 8.33 0.7 8.66 -1 9 C-0.835 8.443125 -0.67 7.88625 -0.5 7.3125 C0.04041351 4.81308751 0.07082065 2.54954338 0 0 Z " fill="#676767" transform="translate(136,26)"/>
<path d="M0 0 C0.99 0 1.98 0 3 0 C6.125 6.625 6.125 6.625 5 10 C4.34 10 3.68 10 3 10 C2.01 6.7 1.02 3.4 0 0 Z " fill="#606060" transform="translate(117,26)"/>
<path d="M0 0 C-3.53411321 2.12046792 -6.94393835 2.53199289 -11 3 C-11 2.34 -11 1.68 -11 1 C-6.87831311 -0.62950412 -4.29299643 -1.26264601 0 0 Z " fill="#898989" transform="translate(11,189)"/>
<path d="M0 0 C0.66 0.33 1.32 0.66 2 1 C1.01 2.98 0.02 4.96 -1 7 C-1.66 7 -2.32 7 -3 7 C-3 6.34 -3 5.68 -3 5 C-4.32 5.33 -5.64 5.66 -7 6 C-2.25 1.125 -2.25 1.125 0 0 Z " fill="#E5E5E5" transform="translate(186,176)"/>
<path d="M0 0 C1.32 0 2.64 0 4 0 C4 2.31 4 4.62 4 7 C2.68 6.67 1.36 6.34 0 6 C0 4.02 0 2.04 0 0 Z " fill="#D6D6D6" transform="translate(211,134)"/>
<path d="M0 0 C-0.3125 1.875 -0.3125 1.875 -1 4 C-4 6 -4 6 -6.1875 5.625 C-6.785625 5.41875 -7.38375 5.2125 -8 5 C-7.01 4.67 -6.02 4.34 -5 4 C-4.67 3.01 -4.34 2.02 -4 1 C-2 0 -2 0 0 0 Z " fill="#F4F4F4" transform="translate(183,181)"/>
<path d="M0 0 C2.52259061 1.97420135 2.9929808 2.96745642 3.6875 6.1875 C3.790625 7.115625 3.89375 8.04375 4 9 C3.01 9 2.02 9 1 9 C-0.4783226 6.04335481 -0.06032783 3.25770263 0 0 Z " fill="#696969" transform="translate(96,13)"/>
<path d="M0 0 C0.66 0 1.32 0 2 0 C2 0.66 2 1.32 2 2 C2.66 2 3.32 2 4 2 C4.33 1.34 4.66 0.68 5 0 C4.33333333 4 3.66666667 8 3 12 C2.67 12 2.34 12 2 12 C1.34 8.04 0.68 4.08 0 0 Z " fill="#595959" transform="translate(163,179)"/>
<path d="M0 0 C-0.33 1.32 -0.66 2.64 -1 4 C-1.99 4 -2.98 4 -4 4 C-4 4.66 -4 5.32 -4 6 C-4.66 6 -5.32 6 -6 6 C-5.625 3.5625 -5.625 3.5625 -5 1 C-3 0 -3 0 0 0 Z " fill="#EBEBEB" transform="translate(189,145)"/>
<path d="M0 0 C0.33 0 0.66 0 1 0 C1.4375 2.125 1.4375 2.125 1 5 C-1.12689146 7.276147 -3.5023433 9.1458722 -6 11 C-6.66 10.67 -7.32 10.34 -8 10 C-7.236875 9.46375 -6.47375 8.9275 -5.6875 8.375 C-2.77135526 5.79794186 -1.5294378 3.54185596 0 0 Z " fill="#CACACA" transform="translate(212,187)"/>
<path d="M0 0 C0.66 0.99 1.32 1.98 2 3 C1.34 3 0.68 3 0 3 C-0.33 6.3 -0.66 9.6 -1 13 C-1.99 13.33 -2.98 13.66 -4 14 C-3.00956295 9.16371695 -2.04301154 4.52381127 0 0 Z " fill="#656565" transform="translate(98,174)"/>
<path d="M0 0 C0.33 0.66 0.66 1.32 1 2 C-0.12104533 3.31587941 -1.24696965 4.62760353 -2.375 5.9375 C-3.00148438 6.66839844 -3.62796875 7.39929688 -4.2734375 8.15234375 C-6 10 -6 10 -8 11 C-6.63629701 8.00779732 -5.05091917 5.70973471 -2.875 3.25 C-2.33617188 2.63640625 -1.79734375 2.0228125 -1.2421875 1.390625 C-0.62730469 0.70226562 -0.62730469 0.70226562 0 0 Z " fill="#C5C5C5" transform="translate(115,208)"/>
<path d="M0 0 C2.3129482 2.3129482 2.49580975 3.47904875 3.125 6.625 C3.29257813 7.44226563 3.46015625 8.25953125 3.6328125 9.1015625 C3.81457031 10.04128906 3.81457031 10.04128906 4 11 C3.34 11 2.68 11 2 11 C0.19769832 7.17010894 -0.19622241 4.21878192 0 0 Z " fill="#828282" transform="translate(113,11)"/>
<path d="M0 0 C0.33 0 0.66 0 1 0 C1 4.62 1 9.24 1 14 C0.01 14.33 -0.98 14.66 -2 15 C-1.34 10.05 -0.68 5.1 0 0 Z " fill="#545454" transform="translate(219,173)"/>
<path d="M0 0 C0 0.66 0 1.32 0 2 C-2.64 2.99 -5.28 3.98 -8 5 C-8 4.01 -8 3.02 -8 2 C-7.34 2 -6.68 2 -6 2 C-6 1.34 -6 0.68 -6 0 C-3.50907189 -1.24546405 -2.58919267 -0.7767578 0 0 Z " fill="#6B6B6B" transform="translate(161,43)"/>
<path d="M0 0 C2.64 0.33 5.28 0.66 8 1 C8.33 1.99 8.66 2.98 9 4 C6.03 3.01 3.06 2.02 0 1 C0 0.67 0 0.34 0 0 Z " fill="#969696" transform="translate(34,99)"/>
<path d="M0 0 C0 4.31618166 -2.13270348 5.92789659 -5 9 C-5.66 9 -6.32 9 -7 9 C-5.44499019 5.18315774 -2.96404505 2.80804268 0 0 Z " fill="#555555" transform="translate(97,73)"/>
<path d="M0 0 C0.66 0.33 1.32 0.66 2 1 C0.35 2.98 -1.3 4.96 -3 7 C-4.32 6.34 -5.64 5.68 -7 5 C-4.69 3.35 -2.38 1.7 0 0 Z " fill="#2D2D2D" transform="translate(186,181)"/>
<path d="M0 0 C0.763125 0.20625 1.52625 0.4125 2.3125 0.625 C1.9825 1.945 1.6525 3.265 1.3125 4.625 C0.6525 3.965 -0.0075 3.305 -0.6875 2.625 C-3.25811311 1.97732207 -3.25811311 1.97732207 -5.6875 1.625 C-2.6875 -0.375 -2.6875 -0.375 0 0 Z " fill="#CBCBCB" transform="translate(161.6875,179.375)"/>
<path d="M0 0 C0.33 2.64 0.66 5.28 1 8 C-1 6 -1 6 -2 3 C-4.97 2.505 -4.97 2.505 -8 2 C-8 1.67 -8 1.34 -8 1 C-2.25 0 -2.25 0 0 0 Z " fill="#494949" transform="translate(214,123)"/>
<path d="M0 0 C3.93846154 4.30769231 3.93846154 4.30769231 4.25 7.8125 C4.1675 8.534375 4.085 9.25625 4 10 C2 9 2 9 0.875 6.6875 C0 4 0 4 0 0 Z " fill="#777777" transform="translate(121,34)"/>
<path d="M0 0 C0.66 1.32 1.32 2.64 2 4 C0.02 4.99 0.02 4.99 -2 6 C-2 2 -2 2 0 0 Z " fill="#F3F3F3" transform="translate(193,172)"/>
<path d="M0 0 C0.99 0.33 1.98 0.66 3 1 C2.67 2.65 2.34 4.3 2 6 C0.68 5.34 -0.64 4.68 -2 4 C-1.01 3.67 -0.02 3.34 1 3 C0.67 2.01 0.34 1.02 0 0 Z " fill="#181818" transform="translate(50,103)"/>
<path d="M0 0 C2 2 2 2 2 5 C0.35 4.67 -1.3 4.34 -3 4 C-3 3.01 -3 2.02 -3 1 C-2.01 0.67 -1.02 0.34 0 0 Z " fill="#5C5C5C" transform="translate(58,89)"/>
<path d="M0 0 C0.99 1.32 1.98 2.64 3 4 C2.67 4.66 2.34 5.32 2 6 C1.01 6 0.02 6 -1 6 C-1.625 4.125 -1.625 4.125 -2 2 C-1.34 1.34 -0.68 0.68 0 0 Z " fill="#616161" transform="translate(107,35)"/>
</svg>
